<?xml version="1.0" encoding="UTF-8"?>
<svg id="Layer_1" xmlns="http://www.w3.org/2000/svg" xmlns:inkscape="http://www.inkscape.org/namespaces/inkscape" version="1.1" viewBox="0 0 250 327.7">
  <!-- Generator: Adobe Illustrator 30.5.0, SVG Export Plug-In . SVG Version: 2.1.4 Build 167)  -->
  <defs>
    <style>
      .st0, .st1 {
        fill: #42a816;
      }

      .st1, .st2 {
        fill-rule: evenodd;
      }

      .st3 {
        fill: #fff;
      }
    </style>
  </defs>
  <g inkscape:groupmode="layer" inkscape:label="Layer 1">
    <path class="st0" d="M179.56,39.35c-2.72.4-5.6-.61-7.95-1.92-.7-.39-1.86-1.04-2.12-1.91v-.68c.2-.68.86-.84,1.44-.99,1.41-.36,2.84-.55,4.3-.43,2.14.18,3.93,1.2,5.88,2.4-.73-1.88-1.65-3.43-2.6-4.96-.44-.71-.88-1.31-1.88-1.57-1.86-.49-3.68-2.03-4.51-3.21-.83-1.19-1.4-2.49-1.7-3.91-.23-1.04-.46-2.38-.04-3.41.02-.05.04-.1.08-.14.48-.5,2.02.2,2.5.41,3.18,1.45,5.29,4.92,5.27,8.35-.01,1.96,1.13,3.17,2.17,4.59-.11-.16.16-1.07.19-1.28.07-.42.14-.84.23-1.26.39-1.84,1.23-3.5,2.29-5.05.65-.95,1.36-1.92,2.32-2.59.44-.31.99-.78,1.31-.11.08.18.13.36.15.56.32,1.92.32,3.96-.66,5.7-.65,1.16-1.31,2.31-2.13,3.38-.81,1.05-1.79,1.96-2.72,3.03.94,1.8,1.59,3.69,2.1,5.66,3.67-7.93,7.08-15.89,11.6-23.27-.98-1.07-1.85-1.98-2.49-3.11-1.51-2.66-2.11-5.55-2.51-8.52-.11-.81-.02-1.6.29-2.36.42-1.03,1.34-1.3,2.34-.75.66.37,1.23.84,1.7,1.43,1.3,1.59,1.86,3.44,2.18,5.42.25,1.57.14,3.13.01,5.09.92-1.21,1.64-2.11,2.31-3.03.5-.69,1.03-1.37,1.25-2.21.68-2.59,2.5-4.42,4.27-6.27.91-.94,1.98-1.64,3.21-2.09.74-.27,1.54-.47,2.33-.24,1.85.56,0,3.23-.65,4.24-1,1.55-2.38,2.95-4.11,3.67-2.98,1.23-4.18.69-7.5,5.77-1.74,2.66-3.17,5.51-4.86,8.44,4.97-3.87,10.2-4.74,11.89-3.4.3.66-.3,1.43-.7,2.03-1.41,2.14-3.54,3.2-6,3.65-1.85.34-3.71.58-5.6.58-.56,0-1.03.07-1.35.64-1.12,2-2.01,4.1-2.92,6.3,1.25.08,2.22-.42,3.24-.69,3-.8,5.74-.1,8.35,1.33.61.33,1.4.76,1.48,1.53.09.9-.73,1.56-1.51,1.81-1.73.55-3.61.65-5.4.42-1.93-.25-3.68-1.01-5.48-1.69l-1.19-.46c-.13-.05-.35-.19-.49-.19-2.07,4.53-3.94,9.01-5.13,13.78.94-.6,1.69-1.44,2.6-2.09.86-.62,4.08-3.16,6.29-3.77.64-.17,1.24-.29,1.87.17.43.69-.31,1.89-.85,2.67-1.91,2.8-4.59,4.57-7.8,5.59-.61.2-1.23.38-1.85.53-.88.22-1.29.72-1.45,1.65-.02.71-.23,1.47-.3,2.18-.08.78-.15,1.56-.21,2.34-.12,1.56-.18,3.13-.2,4.7,0,.24-.05.53-.28.6-.17.05-.35-.07-.42-.23-.08-.15-.08-.34-.08-.51.02-1.3.09-2.59.21-3.89.05-.51.1-1.04-.09-1.51-.21-.53-.7-.9-1.14-1.27-1.44-1.19-2.65-2.57-3.63-4.15-.98-1.58-1.69-3.27-2.12-5.08-.16-.68-.28-1.37-.22-2.07.03-.33.11-.68.38-.87.04-.03.09-.06.14-.08.32-.13.71-.01,1.03.14.68.33,1.27.82,1.81,1.35,1.72,1.7,2.92,3.7,3.59,6.01.1.34.17.7.27,1.04.02.07.45.88.53.77.16-.26.17-.74.23-1.05.07-.36.14-.71.21-1.06.15-.72.31-1.44.48-2.15.33-1.36.75-2.7,1.25-4.01.69-1.76.32-3.43-.17-5.24.05.19-2.32.73-2.56.76"/>
    <path d="M69.8,132.17c-6.51,0-12.04-1.71-16.6-5.14-4.56-3.43-8.03-8.01-10.41-13.73-2.39-5.73-3.58-11.93-3.58-18.62s1.19-12.87,3.58-18.55c2.39-5.68,5.86-10.26,10.41-13.73,4.56-3.47,10.09-5.21,16.6-5.21,12.59,0,21.09,6.03,25.52,18.1h1.43v-15.87c0-7.38-.43-12.63-1.3-15.75-.87-3.12-1.91-5.25-3.12-6.38v-1.3c4.08-.17,8.31-.76,12.69-1.76,4.38-1,7.96-2.45,10.74-4.36h1.43v79.66c0,3.04.5,5.51,1.5,7.42,1,1.91,2.45,2.86,4.36,2.86,1.3,0,2.37-.48,3.19-1.43.82-.96,1.41-2.13,1.76-3.51l1.3.26c-.52,4.77-1.95,8.81-4.3,12.11-2.34,3.3-5.9,4.95-10.67,4.95-10.76,0-16.53-6.16-17.31-18.49h-1.56c-2,6.16-5.19,10.78-9.57,13.87-4.38,3.08-9.74,4.62-16.08,4.62ZM137.11,29.86c2.86,1.91,6.49,3.36,10.87,4.36,4.38,1,8.57,1.58,12.56,1.76v1.3c-1.13,1.04-2.15,3.12-3.06,6.25-.91,3.12-1.37,8.42-1.37,15.88v16.78h1.43c3.82-12.58,12.11-18.88,24.87-18.88,6.08,0,11.22,1.58,15.43,4.75,4.21,3.17,7.42,7.55,9.63,13.15,2.21,5.6,3.32,12.09,3.32,19.46s-1.41,14.15-4.23,19.79c-2.82,5.64-6.66,10-11.52,13.08-4.86,3.08-10.33,4.62-16.4,4.62-8.25,0-15.97-1.26-23.17-3.78-7.2-2.52-13.76-5.95-19.66-10.29V29.86h1.3ZM78,124.1c5.21,0,9.48-2.6,12.82-7.81,3.34-5.21,5.01-12.41,5.01-21.61s-1.67-16.38-5.01-21.55c-3.34-5.16-7.62-7.75-12.82-7.75s-9.24,2.58-12.63,7.75c-3.38,5.16-5.08,12.35-5.08,21.55s1.69,16.4,5.08,21.61c3.38,5.21,7.59,7.81,12.63,7.81ZM173.17,129.18c4.86,0,8.9-2.67,12.11-8.01,3.21-5.34,4.82-13.13,4.82-23.37s-1.41-18.07-4.23-23.5c-2.82-5.42-6.66-8.14-11.52-8.14-4.08,0-7.49,1.97-10.22,5.92-2.73,3.95-4.75,9.29-6.05,16.01-1.3,6.73-1.95,14.26-1.95,22.59,1.13,4.6,2.67,8.25,4.62,10.94,1.95,2.69,4.06,4.62,6.31,5.79,2.26,1.17,4.3,1.76,6.12,1.76"/>
    <path d="M39.3,156.42h2.9v-3.98h3.72v3.98h2.9v-10.46h-2.9v3.92h-3.72v-3.92h-2.9v10.46ZM54.25,156.42h8.49v-2.47h-5.62v-1.66h5.02v-2.29h-5.02v-1.58h5.54v-2.47h-8.41v10.46ZM67.8,156.42h7.97v-2.54h-5.07v-7.92h-2.9v10.46ZM80.58,156.42h2.9v-2.99h1.43c2.6,0,4.5-1.3,4.5-3.77v-.03c0-2.32-1.7-3.68-4.35-3.68h-4.48v10.46ZM83.48,151.16v-2.76h1.36c1.05,0,1.67.48,1.67,1.37v.03c0,.82-.63,1.36-1.66,1.36h-1.37ZM103.2,156.42h2.91v-3.96l3.98-6.5h-3.24l-2.17,3.81-2.15-3.81h-3.3l3.97,6.55v3.92ZM118.85,156.63c3.23,0,5.65-2.44,5.65-5.44v-.03c0-3-2.39-5.41-5.62-5.41s-5.65,2.44-5.65,5.44v.03c0,3,2.39,5.41,5.62,5.41ZM118.88,154.01c-1.58,0-2.67-1.32-2.67-2.82v-.03c0-1.51,1.06-2.79,2.64-2.79s2.69,1.32,2.69,2.82v.03c0,1.51-1.06,2.79-2.66,2.79ZM134.3,156.61c2.97,0,4.9-1.48,4.9-4.86v-5.8h-2.94v5.89c0,1.46-.76,2.15-1.93,2.15s-1.93-.72-1.93-2.23v-5.81h-2.94v5.87c0,3.27,1.87,4.78,4.84,4.78ZM155.79,156.63c1.9,0,3.44-.7,4.54-1.61v-4.71h-4.81v2.12h2.06v1.27c-.43.28-.97.43-1.67.43-1.66,0-2.84-1.21-2.84-2.9v-.03c0-1.6,1.17-2.87,2.67-2.87,1.03,0,1.78.36,2.53.99l1.7-2.05c-1.11-.96-2.41-1.52-4.24-1.52-3.24,0-5.63,2.39-5.63,5.44v.03c0,3.17,2.44,5.41,5.69,5.41ZM165.52,156.42h2.9v-3.17h1.27l2.11,3.17h3.35l-2.5-3.65c1.3-.55,2.15-1.61,2.15-3.21v-.03c0-1.03-.31-1.84-.93-2.44-.7-.72-1.81-1.14-3.41-1.14h-4.95v10.46ZM168.42,150.98v-2.51h1.9c.97,0,1.57.42,1.57,1.24v.03c0,.76-.57,1.24-1.55,1.24h-1.91ZM185.11,156.63c3.23,0,5.65-2.44,5.65-5.44v-.03c0-3-2.39-5.41-5.62-5.41s-5.65,2.44-5.65,5.44v.03c0,3,2.39,5.41,5.62,5.41ZM185.14,154.01c-1.58,0-2.67-1.32-2.67-2.82v-.03c0-1.51,1.06-2.79,2.65-2.79s2.69,1.32,2.69,2.82v.03c0,1.51-1.06,2.79-2.66,2.79ZM198.04,156.49h2.53l2.09-6.02,2.11,6.02h2.53l3.5-10.54h-3l-1.82,6.05-2.02-6.08h-2.5l-2.02,6.08-1.82-6.05h-3.06l3.5,10.54Z"/>
    <path class="st2" d="M0,204.79h250v52.91H0v-52.91Z"/>
    <path class="st1" d="M0,274.79h250v52.91H0v-52.91Z"/>
    <path class="st3" d="M78.44,305.55h-1.6v-2.59h2.13l.7-3.46h-2.84v-2.59h3.36l.93-4.56h2.64l-.93,4.56h2.52l.9-4.56h2.74l-.93,4.56h1.6v2.59h-2.12l-.7,3.46h2.82v2.59h-3.35l-.92,4.56h-2.64l.9-4.56h-2.58l-.93,4.56h-2.64l.93-4.56ZM82.31,299.5l-.7,3.46h2.56l.68-3.46h-2.54ZM97.43,309.82v-3.46h-7.01v-2.87l7.43-10.93h2.77v10.92h2.14v2.88h-2.14v3.46h-3.19ZM97.43,303.49v-5.87l-3.93,5.87h3.93ZM115.46,306.77v3.05h-11.54c.12-1.16.5-2.26,1.12-3.29.62-1.04,1.86-2.41,3.7-4.13,1.48-1.38,2.39-2.32,2.73-2.82.45-.68.68-1.35.68-2.02,0-.74-.2-1.3-.59-1.7-.39-.4-.94-.59-1.63-.59s-1.23.21-1.64.62c-.4.41-.64,1.1-.7,2.06l-3.29-.33c.2-1.82.81-3.12,1.84-3.91,1.03-.79,2.32-1.18,3.87-1.18,1.7,0,3.03.46,4,1.38.97.92,1.45,2.06,1.45,3.42,0,.78-.14,1.51-.42,2.22-.28.7-.72,1.43-1.32,2.2-.4.51-1.12,1.24-2.16,2.2-1.04.96-1.7,1.59-1.98,1.9-.28.31-.5.62-.68.92h6.55ZM133.89,309.82h-3.75l-1.48-3.91h-6.89l-1.43,3.91h-3.68l6.67-17.18h3.68l6.88,17.18ZM127.53,303.01l-2.39-6.36-2.32,6.36h4.71ZM137.84,300.53c-.85-.36-1.47-.85-1.85-1.48-.39-.63-.58-1.32-.58-2.07,0-1.28.45-2.34,1.34-3.18.89-.84,2.16-1.26,3.81-1.26s2.9.42,3.8,1.26c.9.84,1.35,1.9,1.35,3.18,0,.8-.21,1.5-.62,2.13-.41.62-1,1.1-1.75,1.42.96.38,1.68.94,2.18,1.68.5.74.74,1.59.74,2.55,0,1.59-.5,2.88-1.52,3.88-1.01,1-2.35,1.49-4.03,1.49-1.56,0-2.86-.41-3.9-1.24-1.22-.97-1.84-2.3-1.84-4,0-.93.23-1.79.69-2.57.46-.78,1.18-1.38,2.17-1.8ZM138.53,297.22c0,.66.18,1.17.55,1.54.37.37.86.55,1.48.55s1.12-.19,1.49-.56c.37-.37.56-.89.56-1.54,0-.62-.18-1.12-.55-1.49-.37-.37-.86-.56-1.46-.56s-1.13.19-1.5.56c-.37.38-.56.88-.56,1.5ZM138.22,304.59c0,.92.23,1.63.7,2.14.46.51,1.04.77,1.73.77s1.24-.25,1.68-.74c.44-.49.66-1.2.66-2.13,0-.81-.22-1.46-.68-1.96-.45-.49-1.02-.74-1.72-.74-.8,0-1.4.28-1.8.84-.39.56-.59,1.16-.59,1.82ZM156.77,309.82h-3.29v-12.44c-1.2,1.13-2.62,1.96-4.25,2.5v-3c.86-.28,1.79-.81,2.8-1.6,1.01-.78,1.7-1.7,2.07-2.74h2.67v17.28ZM172.86,296.85l-3.19.35c-.08-.66-.28-1.14-.61-1.45-.33-.31-.75-.47-1.28-.47-.7,0-1.28.31-1.76.94-.48.62-.78,1.92-.9,3.9.82-.97,1.84-1.45,3.06-1.45,1.37,0,2.55.52,3.53,1.57.98,1.05,1.47,2.4,1.47,4.06,0,1.76-.52,3.18-1.55,4.24-1.03,1.06-2.36,1.6-3.97,1.6-1.73,0-3.16-.68-4.28-2.03-1.12-1.35-1.68-3.56-1.68-6.64s.58-5.43,1.75-6.83c1.16-1.4,2.68-2.09,4.54-2.09,1.3,0,2.38.37,3.24,1.1.86.73,1.4,1.8,1.64,3.2ZM165.39,304.04c0,1.07.25,1.9.74,2.48.49.58,1.05.88,1.69.88s1.12-.24,1.52-.72c.4-.48.61-1.26.61-2.35s-.22-1.94-.66-2.46c-.44-.52-.98-.78-1.64-.78s-1.17.25-1.61.75c-.44.5-.66,1.23-.66,2.2"/>
    <path class="st3" d="M80.58,235.55h-1.6v-2.59h2.13l.7-3.46h-2.84v-2.59h3.36l.93-4.56h2.64l-.93,4.56h2.52l.9-4.56h2.74l-.93,4.56h1.6v2.59h-2.12l-.7,3.46h2.82v2.59h-3.35l-.92,4.56h-2.64l.9-4.56h-2.58l-.93,4.56h-2.64l.93-4.56ZM84.46,229.5l-.7,3.46h2.56l.68-3.46h-2.54ZM98.7,222.54c1.66,0,2.96.6,3.9,1.79,1.12,1.41,1.68,3.75,1.68,7.01s-.56,5.6-1.69,7.03c-.93,1.18-2.23,1.76-3.89,1.76s-3.02-.64-4.04-1.93c-1.02-1.29-1.54-3.59-1.54-6.89s.56-5.58,1.69-7c.93-1.18,2.23-1.76,3.89-1.76ZM98.7,225.28c-.39,0-.74.13-1.05.38-.31.25-.55.71-.72,1.37-.22.85-.34,2.29-.34,4.31s.1,3.41.3,4.17c.2.76.45,1.26.76,1.51.3.25.65.38,1.04.38s.74-.13,1.05-.38c.3-.25.54-.71.71-1.37.22-.84.34-2.28.34-4.3s-.1-3.41-.3-4.16c-.2-.76-.45-1.26-.76-1.52-.3-.26-.65-.38-1.04-.38ZM112.05,222.54c1.66,0,2.96.6,3.9,1.79,1.12,1.41,1.68,3.75,1.68,7.01s-.56,5.6-1.69,7.03c-.93,1.18-2.23,1.76-3.89,1.76s-3.02-.64-4.04-1.93c-1.02-1.29-1.54-3.59-1.54-6.89s.56-5.58,1.69-7c.93-1.18,2.23-1.76,3.89-1.76ZM112.05,225.28c-.39,0-.74.13-1.05.38-.31.25-.55.71-.72,1.37-.22.85-.34,2.29-.34,4.31s.1,3.41.3,4.17c.2.76.45,1.26.76,1.51.3.25.65.38,1.04.38s.74-.13,1.05-.38c.3-.25.54-.71.71-1.37.22-.84.34-2.28.34-4.3s-.1-3.41-.3-4.16c-.2-.76-.45-1.26-.76-1.52-.3-.26-.65-.38-1.04-.38ZM125.4,222.54c1.66,0,2.96.6,3.9,1.79,1.12,1.41,1.68,3.75,1.68,7.01s-.56,5.6-1.69,7.03c-.93,1.18-2.23,1.76-3.89,1.76s-3.02-.64-4.04-1.93c-1.02-1.29-1.54-3.59-1.54-6.89s.56-5.58,1.69-7c.93-1.18,2.23-1.76,3.89-1.76ZM125.4,225.28c-.39,0-.74.13-1.05.38-.31.25-.55.71-.72,1.37-.22.85-.34,2.29-.34,4.31s.1,3.41.3,4.17c.2.76.45,1.26.76,1.51.3.25.65.38,1.04.38s.74-.13,1.05-.38c.3-.25.54-.71.71-1.37.22-.84.34-2.28.34-4.3s-.1-3.41-.3-4.16c-.2-.76-.45-1.26-.76-1.52-.3-.26-.65-.38-1.04-.38ZM138.74,222.54c1.66,0,2.96.6,3.9,1.79,1.12,1.41,1.68,3.75,1.68,7.01s-.56,5.6-1.69,7.03c-.93,1.18-2.23,1.76-3.89,1.76s-3.02-.64-4.04-1.93c-1.02-1.29-1.54-3.59-1.54-6.89s.56-5.58,1.69-7c.93-1.18,2.23-1.76,3.89-1.76ZM138.74,225.28c-.39,0-.74.13-1.05.38-.31.25-.55.71-.72,1.37-.22.85-.34,2.29-.34,4.31s.1,3.41.3,4.17c.2.76.45,1.26.76,1.51.3.25.65.38,1.04.38s.74-.13,1.05-.38c.3-.25.54-.71.71-1.37.22-.84.34-2.28.34-4.3s-.1-3.41-.3-4.16c-.2-.76-.45-1.26-.76-1.52-.3-.26-.65-.38-1.04-.38ZM152.09,222.54c1.66,0,2.96.6,3.9,1.79,1.12,1.41,1.68,3.75,1.68,7.01s-.56,5.6-1.69,7.03c-.93,1.18-2.23,1.76-3.89,1.76s-3.02-.64-4.04-1.93c-1.02-1.29-1.54-3.59-1.54-6.89s.56-5.58,1.69-7c.93-1.18,2.23-1.76,3.89-1.76ZM152.09,225.28c-.39,0-.74.13-1.05.38-.31.25-.55.71-.72,1.37-.22.85-.34,2.29-.34,4.31s.1,3.41.3,4.17c.2.76.45,1.26.76,1.51.3.25.65.38,1.04.38s.74-.13,1.05-.38c.3-.25.54-.71.71-1.37.22-.84.34-2.28.34-4.3s-.1-3.41-.3-4.16c-.2-.76-.45-1.26-.76-1.52-.3-.26-.65-.38-1.04-.38ZM165.44,222.54c1.66,0,2.96.6,3.9,1.79,1.12,1.41,1.68,3.75,1.68,7.01s-.56,5.6-1.69,7.03c-.93,1.18-2.23,1.76-3.89,1.76s-3.02-.64-4.04-1.93c-1.02-1.29-1.54-3.59-1.54-6.89s.56-5.58,1.69-7c.93-1.18,2.23-1.76,3.89-1.76ZM165.44,225.28c-.39,0-.74.13-1.05.38-.31.25-.55.71-.72,1.37-.22.85-.34,2.29-.34,4.31s.1,3.41.3,4.17c.2.76.45,1.26.76,1.51.3.25.65.38,1.04.38s.74-.13,1.05-.38c.3-.25.54-.71.71-1.37.22-.84.34-2.28.34-4.3s-.1-3.41-.3-4.16c-.2-.76-.45-1.26-.76-1.52-.3-.26-.65-.38-1.04-.38"/>
  </g>
</svg>